PathFileType	4	(X/Y/Z)	_05Apr_ss_11ms_01.trc
DataRate	CameraRate	NumFrames	NumMarkers	Units	OrigDataRate	OrigDataStartFrame	OrigNumFrames
200.000000	200.000000	5	42	mm	200.000000	3793	6114
Frame#	Time	LASI			RASI			LPSI			RPSI			LTH1			LTH2			LTH3			LTH4			LMFC			LLFC			LTB1			LTB2			LTB3			LTB4			LMMAL			LLMAL			LCAL			LToe			LMT1			LMT5			RTH1			RTH2			RTH3			RTH4			RMFC			RLFC			RTB1			RTB2			RTB3			RTB4			RMMAL			RLMAL			RCAL			RToe			RMT1			RMT5			C7			T10			LACR1			RACR1			CLAV			RBack			
		X1	Y1	Z1	X2	Y2	Z2	X3	Y3	Z3	X4	Y4	Z4	X5	Y5	Z5	X6	Y6	Z6	X7	Y7	Z7	X8	Y8	Z8	X9	Y9	Z9	X10	Y10	Z10	X11	Y11	Z11	X12	Y12	Z12	X13	Y13	Z13	X14	Y14	Z14	X15	Y15	Z15	X16	Y16	Z16	X17	Y17	Z17	X18	Y18	Z18	X19	Y19	Z19	X20	Y20	Z20	X21	Y21	Z21	X22	Y22	Z22	X23	Y23	Z23	X24	Y24	Z24	X25	Y25	Z25	X26	Y26	Z26	X27	Y27	Z27	X28	Y28	Z28	X29	Y29	Z29	X30	Y30	Z30	X31	Y31	Z31	X32	Y32	Z32	X33	Y33	Z33	X34	Y34	Z34	X35	Y35	Z35	X36	Y36	Z36	X37	Y37	Z37	X38	Y38	Z38	X39	Y39	Z39	X40	Y40	Z40	X41	Y41	Z41	X42	Y42	Z42	

3793	18.955	381.23093	999.05304	-839.98181	625.84186	1012.43260	-865.87946	478.94284	1020.03250	-671.61493	570.34601	1023.23960	-678.03870	328.95413	810.39893	-863.96936	367.81058	826.73407	-910.54767	341.66736	783.50690	-910.39441	329.91483	730.11578	-911.05737	452.23712	508.82751	-910.34576	333.65799	535.57251	-887.13092	327.52206	470.12418	-777.27124	326.59946	420.87494	-771.17188	340.56027	371.78909	-751.74854	326.37564	427.98663	-823.02594	451.50955	232.50996	-621.59186	371.65460	251.21841	-576.65411	438.56009	273.86023	-510.89066	395.68167	68.24847	-679.81409	435.10083	95.68114	-630.92468	328.42755	127.50110	-602.24146	686.97137	847.60779	-864.85547	696.23175	798.19513	-843.02307	689.37646	760.90637	-811.77490	688.77356	757.46747	-874.67651	519.84814	516.73163	-853.66455	642.84137	508.42273	-852.34363	602.85522	249.40681	-856.72522	624.02075	252.95805	-793.12140	612.71082	212.54424	-820.75940	592.08521	163.02025	-835.51807	507.92975	111.15670	-822.59900	592.90314	91.94392	-795.75769	528.08490	52.10870	-730.40900	557.74420	55.89098	-1004.30210	519.83710	41.22213	-941.34363	627.76227	43.68800	-904.53479	510.89584	1504.18160	-730.58710	529.14008	1241.65100	-636.23572	330.99609	1465.42750	-767.89673	678.87006	1443.93770	-815.20923	498.84552	1407.40420	-858.20233	645.92419	1378.44860	-677.14417
3794	18.96	381.59839	999.70886	-839.53741	626.41986	1012.80700	-865.28418	479.04285	1020.74510	-670.35577	570.41150	1023.91530	-677.37903	329.14328	812.01868	-865.26831	368.40521	828.57709	-911.40375	342.31042	785.50659	-911.36798	330.24661	732.10052	-913.09052	452.26953	510.74045	-913.91064	333.87064	537.22601	-890.54187	327.69815	470.44800	-781.30078	326.88773	421.04535	-776.04236	340.65305	371.70709	-757.17664	326.78403	428.93582	-827.90143	451.96277	230.85548	-629.21472	371.59351	248.54042	-583.95520	439.10590	269.46753	-517.36829	394.59500	67.59528	-691.11920	434.43408	94.06717	-641.43188	328.14047	125.61781	-612.15771	687.45038	847.68494	-863.13647	696.51324	798.41821	-840.83936	689.64099	761.36908	-809.38696	690.40643	757.38824	-870.49536	520.14484	516.77277	-849.55377	643.30389	508.40909	-847.89288	603.17871	249.33072	-851.42499	624.10583	253.02443	-787.77148	612.96393	212.65596	-815.34698	592.33557	163.01237	-829.94238	507.58405	111.55714	-817.85779	593.35370	92.11513	-789.58258	528.04388	52.12234	-724.88660	557.76251	55.79286	-998.69672	520.13440	40.97829	-936.62280	627.78308	43.69985	-898.91943	511.20847	1504.85850	-730.22418	529.63422	1242.27470	-635.83105	331.30157	1465.98050	-767.01312	679.05566	1444.82800	-815.08405	498.97021	1407.96400	-857.73853	646.48853	1379.15190	-676.97278
3795	18.965	382.16394	1000.42210	-839.25330	627.14960	1013.19460	-864.63934	479.20508	1020.99350	-670.55493	570.56042	1024.42410	-676.70239	329.36841	813.57050	-866.40082	368.91678	830.30731	-912.15472	342.94037	787.24243	-912.79779	330.51242	733.97400	-914.91357	452.49274	512.62604	-917.37848	334.00424	538.80908	-893.91840	327.88177	470.54965	-785.28131	327.07401	421.09763	-780.73492	340.77112	371.39255	-762.67212	326.93658	429.78790	-832.54700	451.69763	228.29108	-636.81836	371.59256	245.46100	-591.45239	438.67749	264.74457	-524.52771	394.25540	67.06509	-702.24219	433.76224	92.13308	-652.11987	327.81058	123.60154	-622.38098	687.97522	847.72437	-861.32050	697.09442	798.63177	-837.13684	689.82513	761.82465	-806.96692	690.62830	757.40100	-868.16229	520.73291	516.82544	-845.13428	643.72870	508.43268	-843.43176	603.50482	249.31261	-846.09857	624.31720	253.11729	-782.41510	613.27228	212.73256	-809.93311	592.45935	162.97311	-824.39813	508.00204	111.67194	-811.94250	593.22131	92.10108	-784.15271	528.23962	52.03579	-719.03357	557.75623	55.75103	-993.13055	519.70276	41.23110	-930.24713	627.76221	43.68010	-893.35034	511.62393	1505.39490	-729.78088	530.17676	1242.74440	-635.45428	331.59821	1466.54420	-766.17798	679.26538	1445.75110	-814.97699	499.11832	1408.56020	-857.27826	646.95123	1379.78520	-676.86090
3796	18.97	382.70114	1001.12370	-838.86737	627.74878	1013.49430	-863.99683	479.29047	1021.46830	-670.18292	570.67865	1024.97060	-676.15900	329.58841	815.13031	-867.58209	369.56436	832.12329	-912.93262	343.36450	788.93665	-913.47675	331.25232	736.22644	-916.38898	452.72113	514.51385	-920.69830	334.24249	540.27954	-897.09888	328.00980	470.52927	-789.28839	327.25366	420.95395	-785.61102	340.88953	371.03561	-768.24841	327.23291	430.42889	-837.28400	452.11978	226.11346	-644.83362	371.63388	242.17473	-599.25629	438.63898	259.82104	-531.67090	393.63715	66.42954	-713.57538	433.31387	90.13744	-663.07916	327.05508	121.33817	-632.90027	688.43292	847.71295	-859.54712	697.18347	798.72150	-835.84497	690.09515	762.27710	-804.73376	690.85388	757.41010	-865.94806	521.75970	516.77899	-841.32184	644.14575	508.42966	-838.79980	603.65735	249.21999	-840.86584	624.63196	253.18315	-777.21332	613.29626	212.65051	-804.73816	592.66986	162.97823	-819.00708	508.04019	111.77165	-806.38049	593.10651	92.15816	-778.77264	528.15613	52.05089	-713.47968	557.84814	55.70720	-987.66650	520.13055	41.02613	-924.72510	627.83630	43.63694	-887.77179	511.96606	1505.83420	-729.36005	530.64478	1243.30090	-634.99286	331.86267	1466.99460	-765.29285	679.41962	1446.53880	-814.78021	499.33603	1409.07290	-856.82037	647.48560	1380.34200	-676.72687
3797	18.975	383.14066	1001.64380	-838.51733	628.36133	1013.79390	-863.37970	479.41779	1021.93450	-669.58136	570.76398	1025.38810	-675.45453	329.58887	816.39044	-868.78247	370.10049	833.71722	-913.57080	343.83249	790.81158	-915.22064	331.79947	737.94177	-918.03754	452.70917	516.15784	-923.77795	334.41293	541.74835	-900.23669	328.26633	470.32486	-793.21832	327.42725	420.90158	-790.24951	341.33011	370.62579	-773.66553	327.31879	431.07968	-841.71161	452.07492	223.52734	-653.05658	371.46802	238.64394	-607.02557	438.27557	254.67072	-538.90094	393.07260	65.73772	-726.11206	432.95670	87.99957	-674.25836	326.86429	118.72278	-643.63647	688.90137	847.68665	-857.66937	697.47797	798.84027	-833.70166	690.48071	762.57495	-802.22583	691.22180	757.36951	-863.49597	523.30676	517.44421	-837.80554	644.62573	508.51178	-834.29181	603.94501	249.17049	-835.56244	624.76361	253.25337	-771.80774	613.46796	212.78159	-799.30951	592.08453	162.80003	-813.65802	508.17233	111.88277	-800.86908	593.01434	92.20206	-773.25555	528.05963	52.15596	-707.94708	557.83887	55.62033	-982.04956	520.19647	41.14281	-919.13684	627.83008	43.63573	-882.15765	512.28015	1506.30520	-728.97461	531.14392	1243.71740	-634.59045	332.13239	1467.34180	-764.43756	679.52600	1447.21080	-814.58905	499.42123	1409.60290	-856.46704	647.97540	1380.75830	-676.59460
